<svg xmlns="http://www.w3.org/2000/svg" viewBox="0 0 45 45">
  <title>Blackfynn</title>
  <g class="logo-mark">
    <g class="fill-white">
      <path d="M17.2,15.1c2,0,3.7-1.6,3.7-3.7s-1.6-3.7-3.7-3.7h-11c-2,0-3.7,1.6-3.7,3.7s1.6,3.7,3.7,3.7H17.2z"></path>
    </g>
    <g class="fill-white">
      <path d="M39.3,15.1c2,0,3.7-1.6,3.7-3.7s-1.6-3.7-3.7-3.7h-11c-2,0-3.7,1.6-3.7,3.7s1.6,3.7,3.7,3.7H39.3z"></path>
    </g>
    <g class="fill-white">
      <path d="M17.2,37.2c2,0,3.7-1.6,3.7-3.7c0-2-1.6-3.7-3.7-3.7h-11c-2,0-3.7,1.6-3.7,3.7c0,2,1.6,3.7,3.7,3.7H17.2z"></path>
    </g>
    <g class="fill-white">
      <ellipse cx="28.3" cy="33.5" rx="3.7" ry="3.7"></ellipse>
    </g>
    <g class="fill-white">
      <path d="M6.2,18.8c-2,0-3.7,1.6-3.7,3.7s1.6,3.7,3.7,3.7s3.7-1.6,3.7-3.7S8.2,18.8,6.2,18.8z M6.2,24c-0.8,0-1.5-0.7-1.5-1.5S5.4,21,6.2,21s1.5,0.7,1.5,1.5S7,24,6.2,24z"></path>
    </g>
    <g class="fill-white">
      <path d="M39.3,29.9c-2,0-3.7,1.6-3.7,3.7c0,2,1.6,3.7,3.7,3.7c2,0,3.7-1.6,3.7-3.7C43,31.5,41.4,29.9,39.3,29.9z M39.3,35c-0.8,0-1.5-0.7-1.5-1.5c0-0.8,0.7-1.5,1.5-1.5s1.5,0.7,1.5,1.5C40.8,34.4,40.1,35,39.3,35z"></path>
    </g>
    <g class="fill-white">
      <path d="M39.3,18.8c-1.5,0-2.8,0.9-3.4,2.2h-4.3c-0.6-1.3-1.9-2.2-3.4-2.2c-1.5,0-2.8,0.9-3.4,2.2h-4.3c-0.7-1.6-2.4-2.5-4.1-2.1c-1.7,0.4-2.9,1.9-2.9,3.6s1.2,3.2,2.9,3.6c1.7,0.4,3.4-0.5,4.1-2.1h4.3c0.6,1.3,1.9,2.2,3.4,2.2c1.5,0,2.8-0.9,3.4-2.2h4.3c0.7,1.7,2.6,2.6,4.4,2.1c1.8-0.5,2.9-2.2,2.6-4C42.7,20.2,41.2,18.8,39.3,18.8z"></path>
    </g>
  </g>
</svg>